# xmcd
#
# Track frame offsets:
#	150
#	20710
#	41540
#	65025
#	81770
#	89697
#	100280
#	117207
#	132547
#	151957
#	166462
#	186655
#	205545
#	221805
#	238937
#	263497
#	285515
#	298962
#	319762
#	334395
#
# Disc length: 4783 seconds
#
# Revision: 13
# Processed by: cddbd v1.5.2PL0 Copyright (c) Steve Scherf et al.
# Submitted via: audiograbber 1.83.01
#
DISCID=3d12ad14
DTITLE=Various Artist - Film Soundtrack The Soul of a Man
DYEAR=2003
DGENRE=Blues
TTITLE0=Cassandra Wilson - Vietnam Blues (2003)
TTITLE1=Eagle-Eye Cherry, Vernon Reid and James Blood Ulmer - Down In Mississippi
TTITLE1=(2003)
TTITLE2=Lucinda Williams - Hard Times Killing Floor Blues (2003)
TTITLE3=Lou Reed - Look Down The Road (2003)
TTITLE4=Nick Cave and The Bad Seeds - I Feel So Good (2003)
TTITLE5=Cassandra Wilson - Slow Down (2003)
TTITLE6=T Bone Burnett - Don't Dog Your Woman (2003)
TTITLE7=Los Lobos - Voodoo Music (2003)
TTITLE8=John Mayall and The Bluesbreakers - The Death of J.B. Lenoir (1967)
TTITLE9=J.B. Lenoir - Alabama (1965)
TTITLE10=Shemekia Copeland - God's Word (2003)
TTITLE11=Alvin Youngblood Hart - Illinois Blues (2003)
TTITLE12=Beck - I'm So Glad (2003)
TTITLE13=Jon Spencer Blues Explosion - Special Rider Blues (2003)
TTITLE14=Marc Ribot - Dark Was The Night, Cold Was The Ground (2003)
TTITLE15=Bonnie Raitt - Devil Got My Woman (2003)
TTITLE16=Skip James - Crow Jane (1965)
TTITLE17=Garland Jeffreys - Washington D.C. Hospital Center Blues (2003)
TTITLE18=Blind Willie Johnson - Soul Of A Man (1931)
TTITLE19=Lou Reed - See That My Grave Is Kept Clean (2003)
EXTD=Track dates provided.
EXTT0=
EXTT1=
EXTT2=
EXTT3=
EXTT4=
EXTT5=
EXTT6=
EXTT7=
EXTT8=
EXTT9=
EXTT10=
EXTT11=
EXTT12=
EXTT13=
EXTT14=
EXTT15=
EXTT16=
EXTT17=
EXTT18=
EXTT19=
PLAYORDER=
